<svg width="16" height="16" viewBox="0 0 16 16" fill="none" xmlns="http://www.w3.org/2000/svg">
<g clip-path="url(#clip0_1396_23664)">
<path d="M7.9987 1.3335L7.13103 4.80416C6.96172 5.48139 6.87707 5.82001 6.70075 6.09556C6.5448 6.33928 6.33782 6.54626 6.09409 6.70222C5.81855 6.87853 5.47993 6.96319 4.80269 7.1325L1.33203 8.00016L4.80269 8.86783C5.47993 9.03714 5.81855 9.12179 6.09409 9.29811C6.33782 9.45406 6.5448 9.66105 6.70075 9.90477C6.87707 10.1803 6.96172 10.5189 7.13103 11.1962L7.9987 14.6668L8.86636 11.1962C9.03567 10.5189 9.12033 10.1803 9.29664 9.90477C9.4526 9.66105 9.65958 9.45406 9.90331 9.29811C10.1788 9.12179 10.5175 9.03714 11.1947 8.86783L14.6654 8.00016L11.1947 7.1325C10.5175 6.96319 10.1788 6.87853 9.90331 6.70222C9.65958 6.54626 9.4526 6.33928 9.29664 6.09556C9.12033 5.82001 9.03567 5.4814 8.86636 4.80416L7.9987 1.3335Z" stroke="#85888E" stroke-width="1.5" stroke-linecap="round" stroke-linejoin="round"/>
</g>
<defs>
<clipPath id="clip0_1396_23664">
<rect width="16" height="16" fill="white"/>
</clipPath>
</defs>
</svg>
